<?xml version="1.0" encoding="UTF-8" ?>
<svg width="64pt" height="64pt" viewBox="0 0 64 64" version="1.1" xmlns="http://www.w3.org/2000/svg">
    <g id="#000000ff">
        <path fill="#ffffff" opacity="1.00" d=" M 29.31 0.00 L 33.95 0.00 C 44.08 0.69 53.73 6.31 59.08 14.96 C 61.87 19.28 63.29 24.30 64.00 29.36 L 64.00 34.18 C 63.44 40.13 61.41 45.90 57.93 50.78 C 51.55 42.13 40.79 36.89 30.02 37.73 C 20.57 38.14 11.70 43.24 6.08 50.77 C 2.73 46.15 0.82 40.69 0.00 35.07 L 0.00 30.04 C 0.66 20.92 5.21 12.12 12.55 6.61 C 17.35 2.83 23.29 0.77 29.31 0.00 M 28.15 8.32 C 24.09 9.73 21.06 13.74 20.83 18.04 C 20.65 20.39 20.66 22.77 21.08 25.10 C 22.15 30.46 27.66 34.49 33.11 33.77 C 38.20 33.44 42.62 29.04 43.09 23.98 C 43.44 19.96 43.59 15.40 40.92 12.07 C 38.07 8.20 32.64 6.66 28.15 8.32 Z" />
        <path fill="#ffffff" opacity="1.00" d=" M 31.33 11.43 C 35.23 10.94 39.05 14.09 39.40 17.99 C 39.58 19.95 39.61 21.94 39.35 23.89 C 38.84 27.36 35.54 30.22 32.01 30.08 C 28.81 30.21 25.80 27.88 24.82 24.89 C 24.37 22.62 24.38 20.27 24.60 17.98 C 24.93 14.58 27.89 11.61 31.33 11.43 Z" />
        <path fill="#ffffff" opacity="1.00" d=" M 29.64 41.51 C 39.70 40.50 49.83 45.51 55.50 53.82 C 49.98 59.55 42.51 63.16 34.60 64.00 L 30.14 64.00 C 21.95 63.44 14.19 59.69 8.52 53.80 C 13.40 46.95 21.16 42.11 29.64 41.51 Z" />
    </g>
</svg>
