<svg width="65.191" height="55.063" viewBox="0 0 85.191 75.063" xmlns="http://www.w3.org/2000/svg">
    <g transform="translate(-1208.369 -2622.825)">
        <g>
            <g transform="translate(1208.369 2622.825)">
                <path d="M27.366.757c23.756-5.085,23.066,17.53,28.611,30.99S58.5,69.472,32.256,58.553,1.578,43.249.228,27.29,3.61,5.842,27.366.757Z" transform="matrix(0.326, 0.946, -0.946, 0.326, 66.232, -0.025)" fill="#00bcd4" opacity="0.17" />
                <path d="M26.6,1.248C48.295-6.2,45.492,16.376,49.139,29.213S47.744,66.5,25.376,58.269-.522,46.122-.183,30.376,4.91,8.694,26.6,1.248Z" transform="translate(58.436 6.834) rotate(77)" fill="#fff" />
            </g>
        </g>
        <g transform="translate(1226.306 2622.533)">
            <g transform="translate(0 21.4)">
                <path d="M196.947,111H190.91a.71.71,0,0,0,0,1.42h6.038a.71.71,0,0,0,0-1.42Z" transform="translate(-176.562 -104.575)" fill="#2c2f33" />
                <path d="M27.65,52.047a.71.71,0,1,0,0,1.42H29.9a.707.707,0,0,0,.71-.71V42.926h1.6a.707.707,0,0,0,.71-.71V39.6h1.506a.71.71,0,1,0,0-1.42H28.245l-.753-4.166a2.059,2.059,0,0,0-2.022-1.692h-.832l-.48-8.1a3,3,0,0,0-2.99-2.818H13.975a2.994,2.994,0,0,0-2.99,2.818l-.48,8.1H9.673a2.047,2.047,0,0,0-2.022,1.692L6.9,38.179H.71a.71.71,0,1,0,0,1.42H2.216v2.617a.707.707,0,0,0,.71.71H4.467v9.831a.707.707,0,0,0,.71.71H7.429a.71.71,0,0,0,0-1.42H5.887V42.926h23.3v9.121ZM25.462,33.74a.645.645,0,0,1,.631.523l.71,3.915H24.989l-.265-4.439ZM12.4,24.3a1.571,1.571,0,0,1,1.57-1.477H21.16a1.577,1.577,0,0,1,1.57,1.477l.832,13.875H11.573Zm-3.363,9.96a.639.639,0,0,1,.631-.523h.746l-.265,4.439H8.339ZM3.635,41.506V39.6H31.5v1.907Z" transform="translate(0 -21.4)" fill="#2c2f33" />
                <path d="M155.915,342.11a.707.707,0,0,0-.71-.71H141.71a.71.71,0,0,0,0,1.42h6.038v2.71h-2.9a.707.707,0,0,0-.71.71V349.8a.71.71,0,0,0,1.42,0V346.95h2.194V349.8a.71.71,0,0,0,1.42,0V346.95h2.194V349.8a.71.71,0,0,0,1.42,0V346.24a.707.707,0,0,0-.71-.71h-2.9v-2.71H155.2A.707.707,0,0,0,155.915,342.11Z" transform="translate(-130.89 -318.454)" fill="#3c92ca" />
            </g>
        </g>
    </g>
</svg>